<svg fill="none" height="100" viewBox="0 0 96 100" width="96" xmlns="http://www.w3.org/2000/svg"><rect fill="#e7e7e7" height="96" rx="48" width="96" y="2"/><rect fill="#017c6b" height="100" rx="8" width="55" x="21"/><path clip-rule="evenodd" d="m45.4009 4h-16.4009c-2.2091 0-4 1.79086-4 4v84c0 2.2091 1.7909 4 4 4h39c2.2091 0 4-1.7909 4-4v-84c0-2.20914-1.7909-4-4-4h-16.8555c-.4044 1.198-1.5374 2.06058-2.8718 2.06058-1.3345 0-2.4674-.86258-2.8718-2.06058z" fill="#fff" fill-rule="evenodd"/><path d="m57.3541 55.6285c4.034-4.0169 5.5899-8.9296 5.6542-9.1367.0815-.2625.0119-.5488-.1805-.7442-.1916-.1954-.4752-.2676-.7382-.1887-.2068.0626-5.1068 1.5796-9.1409 5.5968-.539.5368-1.0125 1.097-1.4736 1.6311-.3022.3501-.6324 1.0857-.8128 1.5202.1756-.4481.4655-1.2193.5291-1.58.2569-1.4571.4082-3.0507.4082-4.7237 0-7.0082-2.822-12.6146-2.9422-12.8497-.1266-.2477-.3802-.4035-.6572-.4036-.2771.0001-.5307.1559-.6573.4036-.1201.2351-2.9422 5.8415-2.9422 12.8497 0 1.673.1513 3.2666.4083 4.7237.0636.3607.3535 1.1319.529 1.58-.1803-.4345-.5106-1.1701-.8128-1.5202-.4611-.5341-.9346-1.0943-1.4736-1.6311-4.0341-4.0172-8.9341-5.5342-9.1409-5.5968-.263-.0789-.5466-.0067-.7382.1887-.1923.1954-.262.4817-.1804.7442.0642.2071 1.6201 5.1198 5.6541 9.1367.7249.7218 1.4896 1.3322 2.2224 1.8922.3416.2609 1.534.6825 1.534.6825s-1.2134-.4268-1.5804-.4249c-3.9708.0212-7.1229 2.022-7.2568 2.107-.2143.1361-.3446.3734-.3446.6284 0 .2551.1303.4924.3446.6285.136.0861 3.3701 2.1078 7.4147 2.1078 2.713 0 5.0611-.9096 6.354-1.5344.4227-.2043.9094-.2043 1.3321 0 1.2929.6248 3.6411 1.5344 6.354 1.5344 4.0446 0 7.2787-2.0217 7.4147-2.1078.2143-.1361.3446-.3734.3446-.6285 0-.255-.1303-.4923-.3446-.6284-.1339-.085-3.286-2.0858-7.2568-2.107-.367-.0019-1.5804.4249-1.5804.4249s1.1924-.4216 1.534-.6825c.7329-.56 1.4975-1.1704 2.2224-1.8922zm-16.374 6.1354c-2.2271 0-4.2091-.7032-5.4124-1.2491 1.2062-.5464 3.1933-1.2514 5.4124-1.2514 2.2266 0 4.209.7032 5.4124 1.2492-1.2066.5463-3.1933 1.2513-5.4124 1.2513zm4.3952-3.2515c-1.5046-.7578-3.7313-1.9903-5.6892-3.9398-2.4612-2.451-3.9525-5.3088-4.6965-7.0143 1.7053.7336 4.5667 2.2082 7.0221 4.6532 1.656 1.6494 2.8492 3.4236 3.6523 4.8503.2884.5125.5362 1.0447.7424 1.5959.0372.0993.0738.1956.1098.2888-.3708-.1021-.5146-.1541-1.1409-.4341zm.5034-10.5091c0-4.5713 1.299-8.5814 2.1209-10.6607.0002.0004.0004.0009.0006.0014.0001-.0005.0003-.001.0005-.0014.822 2.0793 2.1209 6.0894 2.1209 10.6607 0 4.5608-1.2995 8.5757-2.1214 10.6586-.822-2.0829-2.1215-6.0978-2.1215-10.6586zm9.1415 11.2601c2.2191 0 4.2062.705 5.4125 1.2514-1.2034.5459-3.1854 1.2491-5.4125 1.2491-2.219 0-4.2058-.705-5.4124-1.2513 1.2034-.546 3.1858-1.2492 5.4124-1.2492zm-4.3952-.751c-.6263.28-.77.332-1.1409.4341.036-.0932.0727-.1895.1098-.2888.2062-.5512.454-1.0834.7425-1.5959.803-1.4267 1.9962-3.2008 3.6522-4.8503 2.4555-2.445 5.3168-3.9196 7.0221-4.6532-.744 1.7055-2.2353 4.5633-4.6965 7.0143-1.9579 1.9495-4.1845 3.182-5.6892 3.9398z" fill="#017c6b" stroke="#017c6b" stroke-width=".5"/></svg>